<svg viewBox="0 0 64 64" xmlns="http://www.w3.org/2000/svg">
  <defs>
    <linearGradient id="chbLogoBag" x1="0%" y1="0%" x2="100%" y2="100%">
      <stop offset="0%" stop-color="#fff7f3"></stop>
      <stop offset="100%" stop-color="#ffffff"></stop>
    </linearGradient>
  </defs>
  <path d="M15 22h34l-2.7 30.5A4 4 0 0 1 42.3 56H21.7a4 4 0 0 1-3.98-3.5L15 22Z" fill="url(#chbLogoBag)"></path>
  <path d="M15 22h34l-2.7 30.5A4 4 0 0 1 42.3 56H21.7a4 4 0 0 1-3.98-3.5L15 22Z" fill="none" stroke="#ff8f69" stroke-width="2.4"></path>
  <path d="M22.5 24.5v-3.3C22.5 15.5 26.9 11 32 11s9.5 4.5 9.5 10.2v3.3" fill="none" stroke="#fff2ec" stroke-linecap="round" stroke-width="4.6"></path>
  <path d="M22.5 24.5v-3.3C22.5 15.5 26.9 11 32 11s9.5 4.5 9.5 10.2v3.3" fill="none" stroke="#ff8c65" stroke-linecap="round" stroke-width="2.6"></path>
  <path d="M31.9 28.8c2.2-3.4 7.5-1.6 7.5 2.3 0 3.5-3 5.8-7.4 9.2-4.4-3.4-7.4-5.7-7.4-9.2 0-3.9 5.2-5.7 7.3-2.3Z" fill="#ff6d4c"></path>
</svg>
